<?xml version="1.0" encoding="utf-8"?>
<!-- Generator: Adobe Illustrator 21.1.0, SVG Export Plug-In . SVG Version: 6.00 Build 0)  -->
<svg version="1.1" id="Layer_1" xmlns="http://www.w3.org/2000/svg" xmlns:xlink="http://www.w3.org/1999/xlink" x="0px" y="0px"
	 viewBox="0 0 360 360" style="enable-background:new 0 0 360 360;" xml:space="preserve">
<style type="text/css">
	.st0{fill:#0B3051;}
</style>
<path class="st0" d="M352.3,171.4c0,10.3-0.1,20.4-1.3,30.6c-1.2,9.7-3.1,19.3-5.9,28.7c-5.3,17.8-14,34.4-24.7,49.6
	c-18,25.5-42.3,45.9-71,58.2c-33.6,14.4-70.8,18.2-106.5,10.5c-34.9-7.5-66.9-26.8-90.9-53.1c-22-24.1-35.9-54.2-41.6-86.2
	c-6.5-36.7,0-74.4,16.6-107.7c12.5-25.2,31.4-46.7,54.7-62.5c14.2-9.7,30-17.7,46.4-23.2c9.6-3.2,19.6-5.2,29.7-6.6
	C216,1.4,254,15.7,298,52.5c27,22.6,42.6,56.5,50.1,91C350.2,152.8,351.2,162.1,352.3,171.4z M201.9,338.4
	c23.8-3.4,46.6-11.6,67-24.4c4.5-2.8,8.9-5.8,13.1-9.1c2.5-1.9,4.2-2.9,4.9-6.1c0.6-3.1,1.3-5.9,2.7-8.7c1-2,2.3-3.8,3.5-5.6
	c0.7-1,4.9-5.7,4.7-6.7c-0.3-1-3.9-2.9-4.9-3.1c-3.1-0.4-7.1,1.8-10,2.6c-4.2,1.2-9.2,3.1-13.6,3c-3.7-0.1-5.8-3.2-8.1-5.8
	c-1.4-1.6-3.4-2.4-5.6-2.3c-2.6,0.1-5.1,0.2-7.6,0c-2.9-0.2-5.8-0.7-8.7-1.5c-3.1-0.9-6.2-3-9.4-3.5c-2.6-0.4-5.5,0.9-8.1,1.2
	c-2.5,0.3-5,0.4-7.5,0.4c-2.8,0-4.2,1-6.8,1.6c-3.4,0.7-5.7-2.1-9-1.9c-5.6,0.3-7.5,6.5-12.3,7.9c-3.3,1-10.6-0.6-13.3-2.6
	c-3.9-2.9-2.7-6.6-2-10.7c0.7-4.1-2.5-5.2-6.1-6.1c-1.8-0.4-7.9,0-9.1-1.2c-1.8-1.8,0.6-5.7,1.1-7.6c0.5-1.8,1.3-4.1-0.2-5.6
	c-1.6-1.7-4.7-1-6.3,0.3c-1.8,1.4-2.4,3.5-4.9,4.1c-2.3,0.5-4.7-0.6-6.6-1.8c-1.7-1-4.6-2.9-5.7-4.5c-1.2-1.9-1-5.2-0.9-7.3
	c0.1-4.3,2.1-9.8,5.8-12.5c1.9-1.4,5.4-1.8,7.7-1.9c2.9-0.1,5.2,1.7,7.9,1.8c2.5,0.1,4.6-1.7,7.2-1.7c2.2,0,4.7,0.7,6.7,1.6
	c3.9,1.8,6.5,10.5,9.9,10.5c3.5-0.1,0.7-4.5,0-6.5c-1-2.8-1.4-4.5-0.6-7.4c1.5-5.6,6.1-7.9,10.3-11.3c3.6-2.9,2.8-6.8,3.9-11
	c0.5-2.1,1.3-4.2,2.6-6c1.5-2,3.7-3.1,5.1-5.1c1.9-2.7,3-8.2,7-8.3c0.8,0,1.9,0.8,2.6,0.7c1.1-0.1,3.2-2,4.1-2.6
	c1.4-0.9,9.4-4.6,5.6-6.6c-1.4-0.8-4.4,1.4-6.2,0.4c-1.9-1-0.8-4.3-3.4-4.6c-2.4-0.3-5.6,5-7.6,4.4c-2.6-0.8,1.8-5.1,2.6-5.8
	c1.8-1.5,4-2.6,6.3-3.4c2.4-0.7,5.5-0.7,7.5-2.4c5.3-4.6-2-10.8-5.3-13.8c-2-1.9-4-4.2-6.4-5.5c-2.5-1.4-5-1.1-7.6-1.7
	c-2.5-0.7-3.4-2.9-5.6-4.3c-1.9-1.3-5-2.9-7.2-3.3c-0.8-0.1-1.7-0.3-2.5,0.1c-2.1,1-1.2,3.2-1.1,5.3c0.1,3.2,0.4,5.7,1.4,8.6
	c0.5,1.3,1,1,0.7,2.5c-0.2,1.4-1.4,2.8-1.7,4.2c-0.8,3.3-1.1,6.8-1.6,10.2c-3.2-2-5.8-4.7-6.8-8.4c-0.4-1.6-0.2-3.4-1.6-4.6
	c-1.8-1.5-5.6-1.5-7.8-2.4c-8.4-3.5-3.3-14.2,0.8-18.9c2.9-3.4,6.5-5.8,9.8-8.7c1.5-1.3,3.5-2.5,2.7-4.3c-0.6-1.5-2.2-1.8-3.6-1.7
	c-1.9,0.2-3.1,1.2-4.9,0.1c-1.8-1.1-2.1-2.8-2.5-4.7c-0.2-1.1,0.1-5-2.1-4c-1.4,0.6-0.8,3-1.3,4.3c-1.7,3.8-5.5,4.3-5.8-0.3
	c-0.3-5.1-1-7.8-4.8-11.3c-1.3-1.2-2.5-3.6-4.1-4.2c-1.3-0.5-4.4,0.1-5.2,1.3c-1.3,1.9,4,8.3,5.7,10.1c1.6,1.8,2.6,7.3-1,4.8
	c-4.8-3.3-9.3-7.3-13.7-11c-2.9-2.4-6.7-5-8.3-8.6c-1.3-3.1,0.4-9.9-2.9-11.9c-2-1.2-6.5-0.5-8.5-0.1c-1.7,0.3-3.8-0.3-5.3,0.2
	c-3.5,1.1-1.9,5.6-5.7,5.7c-3.9,0.1-6.5-1.3-8.9,2.6c-1.2,1.9-1.4,5.5-3.2,6.9c-1.9,1.5-4.5-0.3-6.4-0.9c2.6,5.1,11,5.5,15.6,8.3
	c4.9,3,5.2,10.5,4.2,15.5c-1.4,6.9-4.1,13.5-4.9,20.6c-0.4,3.7,0.5,7.1,0.5,10.7c0,3.1-2,5.1-3.8,7.4c-6.9,9.4-9.7,23.2-9.3,34.7
	c0.1,3.2,1.6,6.5,2.5,9.6c1.1,3.7,2.2,7.3,3.4,11c1.3,4,2.5,13.8,8.2,14.4c-2.3-2.8-3.3-6.3-3.9-9.8c-0.3-1.6-0.5-3.3-0.9-4.9
	c-0.4-1.8-1.4-3.6,1.2-3.8c2.8-0.2,2.7,3.7,3.3,5.9c1.2,4.1,2.5,8.2,4.2,12.1c1.7,3.8,3.9,7.1,3.9,11.5c0,3.7,0.2,6.2,3.5,8.4
	c6.3,4.3,12.3,9.9,19.6,12.5c7.5,2.7,15.1,4.6,21.7,9.4c3.3,2.4,5.2,4.6,7,8.2c1.4,2.7,3.3,4.9,6.1,6.3c3.1,1.6,6.9,2.5,10.4,2.4
	c1.8,0,3.4-0.3,5.2-0.2c3.4,0.2,3.1,0.5,2.9,3.8c-0.2,2.8,0.1,6.4-1.2,8.9c-1.6,3-5.4,2.1-7.4,4.9c-1.8,2.4-2.8,8.1-1.1,10.8
	c1.9,3.1,7.5,4.9,10.4,7.1c3.4,2.6,6.3,5.7,9.1,8.8c2.5,2.8,4.5,5.6,8.7,4.6C203.2,330.4,202.6,334.4,201.9,338.4z M302.9,90.5
	c2.7-1.6,6.9-1.1,9.3-3c3.6-2.8-1.2-4.2-2.7-6c-2.2-2.5-1.7-5.8-1.8-8.9c-0.2-3.5-1.4-6.9-3.6-9.7c-9.7-12.3-24.3-21.5-37.7-29.4
	c-28.3-16.8-58-25.6-92.8-23.3c-20.3,1.4-37.7,6.2-56.8,12.6c2.8,1.4,2.5,1.6,2.8,4.8c0.4,5.1-2.8,5.7-6.7,7.6
	c-0.1,0-2.6,1.1-2.8,1.4c-0.3,0.7,0.5,2.8,0.5,3.7c0,1.1-0.3,2.2-0.7,3.2c-1.5,4-3.9,3.3-6.9,5.6c-1.2,0.9-2.1,2.2-3.1,3.3
	c-1.8,2-0.7,2.5,0.6,4.6c1,1.5,1.5,2.4,3.3,3c1.7,0.6,2.9-0.5,3.4,1.7c0.5,2-2.9,4.9-2.6,6c0.4,1.3,4-0.9,4.8-1.4
	c3.8-2.4,6.9-6.5,10.3-9.6c1.3-1.2,2.6-2.3,3.2-4c0.5-1.4,0-3.3,0.8-4.5c2.2-2.9,8.2,0.2,10.4-3.1c0.7-1.1-0.2-2.6,0.4-3.9
	c0.6-1.3,1.8-1.6,3.1-1.9c2.5-0.6,6.4,0,8.1-2.4c0.7-1,0.3-3.3,1-4.1c0.9-1,6.6-1.3,7.8-1.4c1.5-0.2,3.2,0.1,4.7-0.4
	c2.7-1,3.5-2.3,6.6-2.3c1.4,0,2.8-0.1,3.7,1c1.3,1.5,0.6,2.3,2.7,3.3c4.5,2.1,10.1,2,14.6,0.3c5.9-2.3,9.8-2.3,15.8-1
	c2,0.4,3.8,0.5,5.5-0.6c1.7-1.1,2.4-3.1,4.7-2.9c2,0.2,4.6,2.8,6.3,3.9c2.2,1.5,4.3,2.9,6.5,4.4c2.2,1.5,4.3,3.1,6.3,4.8
	c0.6,0.5,1.7,1.3,2.2,2c1.3,1.6,1,1.7,0.6,3.8c1.3-0.3,2.7,0.4,3.9-0.1c1.4-0.6,1.4-1.6,3-1.7c2.6-0.2,4.4,3.7,2.9,5.2
	c-0.9,0.8-3.9,0.7-5.1,0.9c-1.6,0.3-3.6,0.8-4.9,1.9c-1.9,1.6-0.9,2.3,0.5,4.1c1.2,1.5,2.7,2.8,4.5,3.6c3.6,1.8,7.6,3.3,10.9,5.6
	c3.3,2.3,4.1,5.7,6.7,8.4c1.7,1.9,6.4,4.7,9,4.1c1.6-0.4,1.5-1.6,2.7-2.7c1.1-1.1,2.8-1.5,4.2-2.2c-5.4-3.4-10.3-9.7-16.9-10.7
	c1.4-1.1,2.7-2.2,4.1-3.3c-1.1-1.4-3.2-3.9,0.1-4.2c2.2-0.2,6.2,3.1,8.3,4c4.8,2.2,5,7.2,7.7,11.4c1.5,2.4,2.6,5.1,3.2,7.9
	c0.5,2.4,0.4,5,1.5,7.3c1.1,2.1,3.2,2.7,4.7,4.4c1.8,2,3.3,5.5,3.9,8.1c0.5,2.4-0.5,4.7-0.1,7c0.5,2.8,2.9,3.1,5.3,3.6
	c3.1,0.6,5.6,0.6,5.7,4.2c0.1,3.1-2,3.8-2.9,6.3c-0.7,2,0.1,3.7,1.4,5.2c0.9,1,1.8,1.6,2.3,2.9c0.5,1.3,0.2,2.1,1.2,3.1
	c4.7,5.1,7.9,1.4,9.5-3.5c0.6-2,2-4.5,1.1-6.6c-0.5-1.1-1.6-1.4-2.3-2.2c-0.7-0.9-1.2-2.2-1.8-3.2c-1.8-3.1-3.3-5.8-4-9.3
	c-0.7-3.6-1.4-7.2-2.1-10.8c1.7,0,7.3,0.6,6.8-1.8C309.4,92.5,304.3,91.1,302.9,90.5z M315.6,105.1c-0.2,4.4-0.4,8.8-0.6,13.2
	c-0.2,4.1,0.5,9.1-1.2,12.9c-2.1,4.7-1.7,6.6,0.2,11.3c1.8,4.3,3,8.1,2.9,12.8c-0.1,9.2-0.4,18,2.3,26.8c1.9,6.3,5,15,10.7,18.9
	c2.2,1.5,5.4,2.7,7.6,0.9c1.4-1.2,2.6-3.8,3.5-5.4c1.3-2,2.3-2.5,4.1-3.9c2.4-1.9,1.8-5.7,2-8.6c0.3-4.9,0.4-9.7,0.3-14.6
	c-0.4-18.1-3.9-36.2-10.3-53.1c-3.4-8.9-7.5-17.6-12.5-25.8c-1.4-2.2-2.8-4.4-4.2-6.6c-1-1.5-3.3-6.4-3.2-2.1
	c0.1,4.1,2.4,6.7-1.8,9.5c2,2.6,4.5,5.3,5.4,8.6c0.4,1.2,0.9,3.4,0.4,4.6c-0.7,1.6-0.3,1.1-2.2,1.1
	C318.1,105.5,316.8,105.2,315.6,105.1z M185.4,81.6c0.9,2.6,1.4,5.3,3.3,7.4c2,2.3,5,3.3,7.5,4.9c4.5,2.9,12,7.3,12.8,13.1
	c0.4,3,0,4.8,2.1,7.2c2,2.3,3.7,5.2,6.1,7c2.2,1.6,4.7,3,7.3,2.4c3.4-0.7,6.8-2.1,10.1-3.2c-3.4-1.3-7.3-2.2-8.2-6.2
	c-0.5-2.3,0.2-5,0.4-7.4c0.2-2.4-0.1-5.1,0.3-7.5c0.6-3.9,4.3-5.2,4.1-9.4c-0.2-4-5.2-7.3-8.1-9.6c-4.2-3.3-8.9-4.3-13.6-6.7
	c-5.2-2.7-8.4-4.3-14.4-3.1c-2.6,0.5-3.9,1.3-5.5,3.2c-1,1.1-3.6,3.5-5.4,2.4c-0.3-0.2-0.1-1.8-0.7-2.3c-0.6-0.4-1.4-0.3-2-0.3
	c-2.4,0.1-4.9,1.6-7.1,2.3c2.3,3.7-1.2,6.1-0.9,9.7c0.3,3.2,4.2,5.2,6.7,6.3C181.6,88.3,181.7,83.9,185.4,81.6z M169.9,99.9
	c1.2,2.7,3.2,4.8,5.8,6.2c2.6,1.3,5.9,1.4,8.2,3.1c2.2,1.6,3,4.8,2.6,7.4c-0.5,2.8-2.3,3.5-4.1,5.2c3.9,1.3,13,6.7,16,2.1
	c1.3-2.1,3-5.4,2-7.7c-1.1-2.5-3-3.2-5.2-4.4c-2.4-1.2-3.4-2.5-4.5-4.8c-1.6-3.2-4.3-4.3-7.4-6c-2.4-1.3-5.8-3.6-8.6-3.9
	C172.4,97,171.4,98.3,169.9,99.9z M285.5,102.7c0.6-5.1,1-6.8-4.1-9c-2.3-1-4.5-2.1-6.7-3.3c-1.9-1-4.3-3.4-6.3-3.9
	c-0.9-0.2-1.7-0.5-2.4,0.3c-0.8,0.9,0.3,1.6,0.9,2.6c1.5,2.3,2.7,4.4,3.5,7c1.2,4.3,2.9,9.3,8.2,9.6c0-3.8-5.6-4.3-4.8-8.5
	C277.7,99.3,281.6,101,285.5,102.7z M237.4,93.3c-0.3,0-0.6,0.1-0.9,0.1c0.9,2.4,1.9,8.8,5.5,8.5c2.8-0.2,5-5.1,5.7-7.3
	c1-2.9,1.1-5.2-2.5-5.8C241.9,88.2,239.7,91.2,237.4,93.3z M169.4,240.4c0,1.5,3.7,1.3,5.2,1.6c2.3,0.5,4.5,1.3,6.6,2.3
	c3.8,2,7,6,11.7,3.6c3.1-1.6,0.8-2.4-1.5-3.1c-2.3-0.7-4.6-1.2-6.9-1.7C179.5,242.1,174.4,240,169.4,240.4z M233.1,163.2
	c-2.9-4.5-7.9-7-11.5-10.8C218.8,159,227,165.4,233.1,163.2z M209.8,251c-0.8-0.6-1.9-1-2.6-1.8c-0.7-0.7-0.4-1.8-1.4-2.3
	c-1.6-0.9-5.6,0-7.1,0.8c-3.4,1.6,0.4,3.3,2.4,3.8C204,252.1,207,251.8,209.8,251z"/>
</svg>
